<svg xmlns="http://www.w3.org/2000/svg" xmlns:xlink="http://www.w3.org/1999/xlink" width="500" zoomAndPan="magnify" viewBox="0 0 375 374.999991" height="500" preserveAspectRatio="xMidYMid meet" version="1.0"><defs><g/><clipPath id="id1"><path d="M 152 123 L 224.4375 123 L 224.4375 271 L 152 271 Z M 152 123 " clip-rule="nonzero"/></clipPath></defs><g fill="rgb(24.708557%, 0%, 5.879211%)" fill-opacity="1"><g transform="translate(151.124903, 208.35364)"><g><path d="M -20.492188 0.40625 C -19.292969 1.664062 -14.988281 6.390625 -13.582031 7.710938 C -11.46875 9.699219 -8.714844 7.414062 -8.460938 5.835938 C -8.992188 4.976562 -9.765625 4.175781 -10.519531 3.480469 C -8.363281 1.519531 -6.152344 -0.738281 -5.632812 -1.433594 C -3.507812 -4.347656 -5.425781 -7.128906 -7.339844 -7.09375 C -9.0625 -5.875 -12.496094 -2.800781 -14.496094 -0.78125 C -14.546875 -0.839844 -14.832031 -1.097656 -15.21875 -1.464844 C -17.710938 -3.8125 -20.265625 -0.917969 -20.492188 0.40625 Z M -20.492188 0.40625 "/></g></g></g><g fill="rgb(24.708557%, 0%, 5.879211%)" fill-opacity="1"><g transform="translate(137.446241, 192.111007)"><g><path d="M -11.621094 -2.339844 C -11.761719 -2.285156 -13.144531 -1.84375 -14.347656 -1.226562 C -16.425781 -0.175781 -15.964844 3.332031 -13.664062 4.613281 C -11.007812 3.777344 -4.148438 0.910156 -2.628906 0.1875 C 0.777344 -1.414062 -1.660156 -5.363281 -2.675781 -5.867188 C -4.15625 -5.292969 -5.648438 -4.710938 -7.042969 -4.167969 C -7.40625 -5.109375 -7.722656 -5.917969 -8.078125 -6.828125 C -7.464844 -7.066406 -5.839844 -7.730469 -5.140625 -8.117188 C -2.679688 -9.453125 -4.839844 -13.492188 -5.800781 -13.855469 C -6.140625 -13.757812 -6.828125 -13.503906 -7.324219 -13.3125 C -10.941406 -11.917969 -15.480469 -10.15625 -16.902344 -9.601562 C -19.617188 -8.542969 -19.148438 -4.730469 -17.074219 -3.523438 C -16.257812 -3.695312 -14.292969 -4.492188 -12.683594 -5.070312 C -12.328125 -4.160156 -11.984375 -3.277344 -11.621094 -2.339844 Z M -11.621094 -2.339844 "/></g></g></g><g fill="rgb(24.708557%, 0%, 5.879211%)" fill-opacity="1"><g transform="translate(130.789257, 171.121675)"><g><path d="M -3.53125 -0.8125 C -1.457031 -0.949219 -0.4375 -1.582031 -0.0820312 -3.019531 C 0.167969 -4.121094 0.109375 -8.105469 -0.0664062 -9.371094 C -0.46875 -12.265625 -3.113281 -12.644531 -4.738281 -11.472656 C -4.726562 -9.839844 -4.714844 -8.207031 -4.703125 -6.574219 C -4.699219 -6.453125 -4.699219 -6.328125 -4.699219 -6.222656 C -5.019531 -6.21875 -5.292969 -6.21875 -5.628906 -6.214844 C -5.640625 -7.636719 -5.613281 -8.09375 -5.648438 -8.871094 C -5.773438 -11.113281 -7.546875 -11.804688 -9.570312 -10.871094 C -9.972656 -9.574219 -9.785156 -7.054688 -9.78125 -6.171875 C -10.085938 -6.167969 -10.328125 -6.167969 -10.574219 -6.164062 C -10.589844 -8.132812 -10.589844 -8.484375 -10.597656 -9.308594 C -10.625 -12.988281 -14.40625 -12.5625 -15.210938 -11.992188 C -15.402344 -9.273438 -15.421875 -3.519531 -15.144531 -0.972656 C -12.5625 -0.6875 -5.621094 -0.675781 -3.53125 -0.8125 Z M -3.53125 -0.8125 "/></g></g></g><g fill="rgb(24.708557%, 0%, 5.879211%)" fill-opacity="1"><g transform="translate(136.398368, 138.41448)"><g><path d="M -2.75 -14.054688 C -0.949219 -15.214844 -0.636719 -18.292969 -3.441406 -19.34375 C -6.84375 -17.761719 -8.601562 -15.246094 -9.042969 -12.464844 C -9.378906 -10.386719 -9.097656 -8.476562 -7.84375 -6.78125 C -6.722656 -5.269531 -5.027344 -4.023438 -3.25 -3.523438 C -1.125 -2.914062 2.179688 -2.738281 5.035156 -6.816406 C 8.324219 -11.515625 5.765625 -14.855469 4.082031 -15.882812 C 1.820312 -17.28125 -0.660156 -14.007812 -0.273438 -12.859375 C 0.671875 -12.160156 1.929688 -11.242188 0.976562 -9.878906 C 0.367188 -8.984375 -0.828125 -8.609375 -2.050781 -9.28125 C -3.097656 -9.808594 -3.917969 -10.660156 -3.839844 -11.914062 C -3.800781 -12.871094 -3.464844 -13.4375 -2.75 -14.054688 Z M -2.75 -14.054688 "/></g></g></g><g fill="rgb(24.708557%, 0%, 5.879211%)" fill-opacity="1"><g transform="translate(149.967964, 121.002779)"><g><path d="M -1.113281 -17.671875 C -4.660156 -15.429688 -5.167969 -12.410156 -4.839844 -10.078125 C -4.613281 -8.367188 -3.515625 -6.386719 -2.082031 -4.960938 C -0.570312 -3.441406 1.238281 -2.648438 3.40625 -2.839844 C 5.6875 -3.023438 7.597656 -4.023438 9.179688 -5.644531 C 11.140625 -7.628906 11.761719 -10 11.050781 -12.6875 C 10.496094 -14.71875 9.300781 -16.308594 7.65625 -17.582031 C 6.628906 -18.363281 3.28125 -20.460938 -1.113281 -17.671875 Z M 1.851562 -13.082031 C 2.769531 -13.65625 4.125 -13.335938 4.949219 -11.816406 C 5.785156 -10.308594 5.277344 -9.25 4.617188 -8.78125 C 3.976562 -8.308594 2.648438 -8.214844 1.621094 -9.660156 C 0.550781 -11.132812 0.894531 -12.480469 1.851562 -13.082031 Z M 1.851562 -13.082031 "/></g></g></g><g fill="rgb(24.708557%, 0%, 5.879211%)" fill-opacity="1"><g transform="translate(170.318946, 109.753328)"><g><path d="M 6.027344 -16.648438 C 1.878906 -16.007812 0.210938 -13.441406 -0.417969 -11.171875 C -0.894531 -9.511719 -0.675781 -7.257812 0.0703125 -5.378906 C 0.847656 -3.382812 2.191406 -1.933594 4.257812 -1.242188 C 6.421875 -0.503906 8.574219 -0.660156 10.667969 -1.515625 C 13.257812 -2.550781 14.773438 -4.480469 15.191406 -7.226562 C 15.496094 -9.308594 15.035156 -11.246094 14.035156 -13.070312 C 13.402344 -14.195312 11.167969 -17.453125 6.027344 -16.648438 Z M 6.914062 -11.257812 C 7.988281 -11.417969 9.101562 -10.582031 9.25 -8.863281 C 9.417969 -7.144531 8.53125 -6.378906 7.738281 -6.210938 C 6.960938 -6.035156 5.707031 -6.476562 5.335938 -8.210938 C 4.945312 -9.988281 5.796875 -11.089844 6.914062 -11.257812 Z M 6.914062 -11.257812 "/></g></g></g><g fill="rgb(24.708557%, 0%, 5.879211%)" fill-opacity="1"><g transform="translate(193.489133, 107.688625)"><g><path d="M 16.226562 -4.179688 C 17.023438 -7.363281 16.40625 -9.671875 14.339844 -11.527344 C 12.644531 -13.054688 7.394531 -14.648438 4.574219 -13.816406 C 3.207031 -9.421875 2.261719 -5.710938 1.882812 -3.242188 C 1.421875 -0.335938 2.882812 1.050781 6.433594 1.941406 C 12.859375 3.550781 15.546875 -1.472656 16.226562 -4.179688 Z M 7.828125 -2.113281 C 7.605469 -2.167969 7.167969 -2.359375 7.265625 -2.820312 C 7.65625 -4.5 8.703125 -8.566406 8.9375 -9.496094 C 10.175781 -9.421875 11.941406 -8.429688 11.203125 -5.53125 C 10.449219 -2.527344 8.976562 -1.859375 7.828125 -2.113281 Z M 7.828125 -2.113281 "/></g></g></g><g fill="rgb(24.708557%, 0%, 5.879211%)" fill-opacity="1"><g transform="translate(225.732122, 122.414852)"><g><path d="M 11.867188 5.773438 C 15.578125 6.648438 19.179688 2.863281 18.863281 -0.0351562 C 18.488281 -3.699219 13.644531 -8.042969 11.796875 -8.230469 C 10.066406 -7.421875 3.550781 -1.894531 2.671875 -0.824219 C 0.457031 1.90625 2.433594 4.789062 4.308594 4.871094 C 5.683594 3.941406 7.488281 2.414062 7.6875 2.246094 C 7.699219 2.238281 7.71875 2.238281 7.71875 2.238281 C 7.75 2.253906 7.761719 2.265625 7.78125 2.265625 C 7.792969 2.277344 7.792969 2.277344 7.800781 2.289062 C 7.832031 2.5625 9.054688 5.101562 11.867188 5.773438 Z M 13.246094 0.664062 C 12.777344 1.054688 12.394531 1.097656 12.039062 0.792969 C 11.738281 0.550781 11.503906 0.25 11.261719 -0.0429688 C 11.222656 -0.0898438 11.246094 -0.25 11.292969 -0.289062 C 11.691406 -0.644531 12.019531 -0.917969 12.511719 -1.328125 C 13.625 -0.949219 13.722656 0.261719 13.246094 0.664062 Z M 13.246094 0.664062 "/></g></g></g><g fill="rgb(24.708557%, 0%, 5.879211%)" fill-opacity="1"><g transform="translate(238.27252, 139.340166)"><g><path d="M 3.363281 9.605469 C 4.191406 11.582031 7.230469 12.386719 9.007812 10.46875 C 8.550781 8.347656 7.671875 5.714844 7.117188 4.4375 C 8.941406 3.871094 11.882812 2.855469 13.523438 2.09375 C 16.925781 0.484375 15.726562 -2.894531 14.070312 -3.808594 C 10.3125 -3.140625 5.40625 -1.222656 3.476562 -0.214844 C 0.792969 1.179688 1.308594 3.648438 1.820312 5.132812 C 1.820312 5.132812 2.53125 7.617188 3.363281 9.605469 Z M 3.363281 9.605469 "/></g></g></g><g fill="rgb(24.708557%, 0%, 5.879211%)" fill-opacity="1"><g transform="translate(243.83991, 158.651555)"><g><path d="M 4.597656 0.386719 C 1.160156 -0.386719 -1.296875 1.34375 -0.0546875 5.144531 C 0.730469 5.382812 1.484375 5.65625 2.117188 5.9375 C 2.054688 6.910156 2.078125 7.980469 2 8.941406 C -2.222656 10 -0.488281 14.71875 1.164062 14.988281 C 4.386719 14.519531 9.8125 13.117188 11.851562 12.363281 C 16.152344 10.769531 15.347656 6.191406 14.730469 4.078125 C 12.859375 3.035156 7.644531 1.085938 4.597656 0.386719 Z M 6.457031 6.679688 C 7.699219 7.011719 8.878906 7.34375 10.074219 7.660156 C 10.074219 7.707031 10.070312 7.75 10.085938 7.796875 C 8.855469 8.046875 7.640625 8.308594 6.394531 8.554688 C 6.414062 7.929688 6.4375 7.335938 6.457031 6.679688 Z M 6.457031 6.679688 "/></g></g></g><g fill="rgb(24.708557%, 0%, 5.879211%)" fill-opacity="1"><g transform="translate(241.921045, 179.957834)"><g><path d="M 5.511719 13.453125 C 3.96875 14.960938 4.285156 18.078125 7.261719 18.546875 C 10.308594 16.300781 11.558594 13.449219 11.445312 10.617188 C 11.34375 8.492188 10.6875 6.671875 9.105469 5.230469 C 7.699219 3.949219 6.011719 3.277344 4.160156 3.019531 C 1.484375 2.664062 -0.75 3.503906 -2.441406 5.660156 C -3.558594 7.105469 -4.722656 9.507812 -4.679688 11.3125 C -4.5625 15.609375 -0.613281 15.804688 0.625 13.996094 C 0.5625 13.570312 0.289062 12.019531 0.582031 11.011719 C 0.996094 9.496094 2.125 8.355469 3.871094 8.855469 C 5.03125 9.179688 6 9.851562 6.183594 11.113281 C 6.328125 12.078125 6.09375 12.691406 5.511719 13.453125 Z M 5.511719 13.453125 "/></g></g></g><g fill="rgb(24.708557%, 0%, 5.879211%)" fill-opacity="1"><g transform="translate(232.138618, 199.003447)"><g><path d="M 1.945312 3.058594 C 0.371094 1.699219 -0.800781 1.4375 -2.0625 2.210938 C -3.011719 2.816406 -5.765625 5.695312 -6.527344 6.71875 C -8.277344 9.066406 -6.660156 11.191406 -4.679688 11.496094 C -3.542969 10.324219 -2.402344 9.152344 -1.265625 7.984375 C -1.179688 7.894531 -1.09375 7.808594 -1.019531 7.730469 C -0.792969 7.953125 -0.59375 8.144531 -0.355469 8.378906 C -1.34375 9.398438 -1.683594 9.703125 -2.203125 10.285156 C -3.691406 11.96875 -2.910156 13.703125 -0.816406 14.460938 C 0.382812 13.820312 2.015625 11.894531 2.632812 11.261719 C 2.851562 11.472656 3.027344 11.644531 3.203125 11.8125 C 1.832031 13.226562 1.585938 13.476562 1.011719 14.066406 C -1.550781 16.707031 1.441406 19.058594 2.414062 19.21875 C 4.460938 17.417969 8.511719 13.332031 10.101562 11.324219 C 8.464844 9.308594 3.527344 4.425781 1.945312 3.058594 Z M 1.945312 3.058594 "/></g></g></g><path fill="rgb(78.42865%, 24.708557%, 25.099182%)" d="M 189.878906 153.304688 C 190.535156 153.035156 190.738281 152.855469 190.738281 152.855469 C 190.738281 152.855469 190.539062 152.746094 189.878906 152.734375 C 188.246094 152.679688 181.539062 153.378906 181.484375 153.382812 C 181.484375 153.382812 181.699219 153.570312 182.40625 153.78125 C 184.625 154.410156 187.839844 154.117188 189.878906 153.304688 " fill-opacity="1" fill-rule="nonzero"/><path fill="rgb(78.42865%, 24.708557%, 25.099182%)" d="M 166.53125 139.558594 C 168.175781 136.671875 170.449219 134.207031 172.75 132.46875 C 173.460938 131.902344 173.964844 131.570312 174.277344 131.34375 C 174.589844 131.121094 174.710938 131.019531 174.710938 131.019531 C 174.710938 131.019531 174.5625 131.054688 174.203125 131.1875 C 173.84375 131.320312 173.261719 131.53125 172.460938 131.988281 C 170.179688 133.203125 167.515625 135.605469 165.605469 138.921875 C 164.453125 140.929688 163.84375 142.734375 163.472656 144.214844 C 162.578125 148.898438 163.183594 149.523438 163.164062 150.128906 C 163.765625 147.0625 164.109375 143.828125 166.53125 139.558594 " fill-opacity="1" fill-rule="nonzero"/><path fill="rgb(78.42865%, 24.708557%, 25.099182%)" d="M 203.277344 130.925781 C 210.890625 135.625 212.933594 139.578125 216.007812 143.785156 C 216.007812 143.785156 216 143.683594 215.9375 143.410156 C 214.40625 137.984375 208.789062 132.535156 203.554688 130.441406 C 202.804688 130.125 202.28125 129.972656 201.957031 129.882812 C 201.628906 129.792969 201.492188 129.765625 201.492188 129.765625 C 201.492188 129.765625 201.597656 129.855469 201.878906 130.042969 C 202.164062 130.222656 202.609375 130.507812 203.277344 130.925781 " fill-opacity="1" fill-rule="nonzero"/><g clip-path="url(#id1)"><path fill="rgb(78.42865%, 24.708557%, 25.099182%)" d="M 221.863281 165.359375 C 218.109375 170.886719 208.324219 164.753906 199.195312 165.894531 C 197.082031 166.15625 195.027344 166.683594 193.054688 167.484375 C 191.277344 168.214844 189.769531 169.09375 187.78125 169.179688 C 183.054688 169.386719 179.640625 167.558594 175.398438 165.992188 C 168.507812 163.445312 160.300781 173.726562 155.132812 165.730469 C 153.730469 163.554688 153.675781 161 154.820312 158.703125 C 156.070312 156.222656 157.339844 155.265625 159.554688 153.894531 C 158.855469 149.8125 159.777344 146.488281 161.328125 142.691406 C 162.808594 139.066406 165.003906 135.78125 167.855469 133.074219 C 173.558594 127.660156 181.214844 124.851562 189.085938 125.066406 C 196.382812 125.265625 203.738281 127.484375 209.359375 132.242188 C 216.402344 138.207031 219.132812 146.558594 218.453125 155.585938 C 218.46875 155.378906 221.03125 156.589844 221.230469 156.734375 C 222.058594 157.316406 222.648438 157.953125 222.941406 158.902344 C 223.578125 161.003906 223.082031 163.574219 221.863281 165.359375 Z M 217.097656 175.128906 C 217.003906 175.140625 216.917969 175.15625 216.828125 175.171875 C 215.8125 175.316406 214.773438 175.214844 213.75 175.105469 C 199.160156 173.625 198.730469 179.472656 190.855469 179.121094 C 186.445312 178.933594 182.390625 176.90625 178.105469 176.0625 C 175.5625 175.5625 172.824219 175.476562 170.34375 176.257812 C 167.796875 177.054688 164.734375 178.382812 162.148438 177.003906 C 159.292969 175.484375 152.703125 172.585938 155.265625 168.441406 C 155.351562 168.3125 155.378906 168.1875 155.375 168.066406 C 162.074219 174.382812 168.382812 165.03125 174.851562 167.367188 C 177.753906 168.414062 180.46875 170.09375 183.535156 170.683594 C 186.394531 171.230469 189.113281 170.554688 191.765625 169.5 C 195.070312 168.1875 197.859375 167.019531 201.507812 167.082031 C 208.890625 167.203125 216.113281 170.660156 221.097656 167.777344 C 222.207031 170.644531 220.183594 174.550781 217.097656 175.128906 Z M 195.527344 180.527344 C 196.304688 180.4375 197.019531 180.3125 197.6875 180.175781 C 196.757812 181.894531 196.332031 182.039062 194.96875 182.589844 C 195.679688 180.019531 195.496094 180.640625 195.527344 180.527344 Z M 211.671875 181.660156 C 209.363281 182.398438 208.777344 182.699219 208.695312 182.734375 C 208.773438 182.734375 209.195312 182.785156 211.457031 182.378906 C 211.25 183.082031 211.046875 183.78125 210.84375 184.476562 C 209.488281 184.5625 207.308594 185.378906 207.214844 185.40625 C 207.0625 185.535156 207.71875 188.109375 207.832031 188.488281 C 208.398438 190.414062 208.792969 190.609375 208.820312 190.660156 C 208.828125 189.515625 208.992188 189.207031 208.421875 186.175781 C 208.421875 186.175781 208.414062 186.171875 208.414062 186.160156 C 208.414062 186.15625 208.414062 186.148438 208.417969 186.144531 C 209.179688 185.84375 209.957031 185.511719 210.671875 185.105469 C 209.675781 188.632812 208.726562 192.277344 207.804688 195.816406 C 207.746094 194.988281 207.738281 194.972656 207.589844 193.746094 C 204.25 194.367188 204.367188 194.359375 200.910156 195.128906 C 201.78125 199.554688 202.503906 201.214844 202.523438 201.273438 C 202.195312 196.933594 203.101562 204.378906 202.125 195.953125 C 202.136719 195.953125 202.140625 195.953125 202.140625 195.957031 C 204.597656 195.484375 206.605469 194.988281 206.671875 194.96875 L 206.691406 194.957031 L 206.753906 194.925781 C 207.21875 197.003906 207.152344 196.769531 207.355469 197.546875 C 206.871094 199.378906 206.394531 201.207031 205.910156 203.035156 C 204.867188 203.089844 202.15625 203.414062 201.992188 203.496094 C 202.320312 205.082031 202.660156 206.851562 203.21875 208.402344 C 203.503906 209.203125 203.675781 209.460938 203.675781 209.460938 C 203.675781 209.460938 203.78125 209.15625 203.769531 208.308594 C 203.769531 206.746094 203.328125 204.558594 203.308594 204.417969 C 203.949219 204.292969 204.777344 204.15625 205.671875 203.933594 C 204.746094 207.453125 203.964844 210.421875 203.328125 212.863281 C 203.277344 212.566406 203.234375 212.292969 203.195312 212.058594 C 202.917969 212.125 202.648438 212.1875 202.386719 212.246094 C 199.507812 212.957031 201.914062 212.195312 195.679688 213.367188 C 197.015625 218.710938 197.746094 219.765625 197.765625 219.816406 C 197.742188 219.609375 198.097656 219.296875 197.035156 214.25 C 197.800781 214.089844 198.453125 213.945312 199.023438 213.808594 C 199.84375 213.714844 200.800781 213.574219 202.253906 213.304688 C 202.253906 213.304688 202.300781 213.296875 202.3125 213.300781 C 202.316406 213.300781 202.324219 213.304688 202.328125 213.308594 C 202.324219 213.320312 202.320312 213.328125 202.316406 213.332031 C 202.34375 213.527344 202.375 213.738281 202.40625 213.964844 C 202.472656 214.421875 202.554688 214.933594 202.632812 215.492188 C 202.308594 216.71875 202.039062 217.75 201.8125 218.601562 C 201.570312 218.660156 201.34375 218.71875 201.132812 218.769531 C 200.472656 218.9375 199.964844 219.078125 199.578125 219.199219 C 198.8125 219.433594 198.539062 219.5625 198.539062 219.5625 C 198.539062 219.5625 198.761719 219.628906 199.527344 219.613281 C 199.910156 219.605469 200.429688 219.578125 201.125 219.515625 C 201.265625 219.5 201.421875 219.484375 201.582031 219.46875 C 201.308594 220.511719 201.136719 221.152344 201.070312 221.414062 C 200.097656 221.527344 198.632812 221.796875 197.988281 221.941406 C 198.3125 223.234375 198.914062 225.507812 199.652344 226.835938 C 198.394531 231.675781 198.355469 231.785156 197.882812 233.597656 C 197.835938 233.136719 197.445312 231.101562 197.316406 230.816406 C 194.105469 231.746094 193.859375 231.4375 190.925781 232.410156 C 191.417969 234.769531 192.351562 236.902344 192.367188 236.953125 C 192.34375 236.605469 192.582031 236.824219 192.0625 233.128906 C 192.0625 233.109375 192.070312 233.101562 192.078125 233.089844 C 192.308594 233.066406 193.335938 232.792969 196.601562 231.714844 C 196.601562 231.714844 197.179688 233.960938 197.519531 234.960938 C 196.214844 239.882812 196.445312 238.957031 196.160156 240.015625 C 195.003906 240.058594 193.882812 240.28125 192.863281 240.472656 C 193.121094 241.792969 193.753906 245.003906 194.511719 246.226562 C 194.492188 246.308594 193.429688 250.695312 193.410156 250.769531 C 193.390625 250.628906 193.445312 250.980469 193.269531 249.417969 C 189.722656 250.175781 190.097656 250.082031 186.121094 251.152344 C 186.980469 255.332031 187.726562 256.851562 187.742188 256.902344 C 187.714844 256.59375 188.074219 256.871094 187.367188 251.945312 C 190.925781 251.058594 191.765625 250.753906 192.386719 250.578125 C 192.40625 250.570312 192.402344 250.5625 192.542969 250.503906 C 192.675781 250.855469 192.769531 251.449219 193.019531 252.324219 C 192.480469 254.460938 191.898438 256.578125 191.199219 258.644531 C 190.964844 258.691406 190.695312 258.75 190.378906 258.832031 C 189.492188 259.054688 188.832031 259.304688 187.992188 259.605469 C 187.878906 259.648438 188.664062 262.460938 188.742188 262.707031 C 189.128906 263.902344 189.214844 267.796875 187.695312 268.292969 C 186.414062 268.714844 185.871094 266.828125 185.246094 266.101562 C 185.363281 266.039062 186.699219 265.417969 186.6875 265.390625 C 186.863281 265.824219 186.96875 265.980469 186.96875 265.980469 C 186.96875 265.980469 187.460938 265.171875 186.734375 261.179688 C 186.695312 260.96875 186.65625 260.757812 186.621094 260.554688 C 186.597656 260.441406 186.578125 260.324219 186.558594 260.210938 C 186.523438 260.117188 186.5625 259.917969 186.410156 260 C 185.941406 260.085938 184.46875 260.382812 184.105469 260.507812 C 183.949219 259.730469 183.800781 259.003906 183.652344 258.3125 C 184.710938 257.894531 185.042969 257.667969 185.042969 257.667969 C 185.042969 257.667969 184.644531 257.601562 183.53125 257.738281 C 183.210938 256.234375 182.898438 254.871094 182.546875 253.40625 C 183.003906 253.363281 183.894531 253.214844 183.949219 253.210938 C 184.671875 256.871094 185.410156 258.128906 185.425781 258.179688 C 185.394531 257.859375 186.011719 258.171875 184.839844 251.917969 C 183.722656 252.144531 183.4375 252.195312 182.324219 252.472656 C 182.144531 251.714844 181.964844 250.957031 181.78125 250.207031 C 182.035156 250.132812 182.058594 250.121094 184.011719 249.484375 C 183.917969 249.488281 183.894531 249.320312 181.625 249.578125 C 181.238281 247.957031 180.835938 246.332031 180.429688 244.71875 C 181.925781 244.539062 181.925781 244.480469 181.945312 244.503906 L 181.972656 244.585938 C 183.214844 248.542969 184.011719 249.484375 184.011719 249.484375 C 183.929688 249.074219 184.675781 249.796875 182.726562 243.234375 C 181.625 243.46875 181.964844 243.359375 180.191406 243.800781 C 179.972656 242.917969 179.746094 242.027344 179.515625 241.140625 C 180.882812 240.789062 181.3125 240.535156 181.3125 240.535156 C 181.3125 240.535156 180.917969 240.3125 179.320312 240.375 C 178.925781 238.859375 178.53125 237.34375 178.128906 235.828125 C 178.746094 235.703125 179.242188 235.59375 179.945312 235.433594 C 179.953125 235.429688 179.960938 235.417969 179.976562 235.414062 C 180.257812 236.496094 179.738281 234.90625 181.3125 240.527344 C 181.3125 240.328125 181.734375 239.8125 180.878906 234.109375 C 179.214844 234.457031 179.199219 234.460938 177.855469 234.761719 C 177.664062 234.042969 177.472656 233.316406 177.28125 232.59375 C 178.382812 232.296875 178.742188 232.09375 178.742188 232.09375 C 178.742188 232.09375 178.410156 231.902344 177.101562 231.910156 C 176.71875 230.425781 176.324219 228.941406 175.9375 227.460938 C 177.019531 227.21875 177.746094 227.023438 177.816406 227 C 177.8125 226.984375 177.8125 226.972656 177.8125 226.96875 C 177.867188 226.96875 178.28125 228.976562 179.019531 230.964844 C 179.339844 231.8125 179.515625 232.09375 179.515625 232.09375 C 179.488281 231.890625 179.941406 231.625 178.65625 225.660156 C 178.035156 225.8125 177.242188 225.984375 175.664062 226.421875 C 175.371094 225.289062 175.128906 224.355469 174.929688 223.578125 C 175.230469 223.484375 175.5 223.40625 175.730469 223.332031 C 176.273438 223.15625 176.648438 223.03125 176.886719 222.953125 C 176.886719 222.953125 177.199219 222.886719 177.199219 222.882812 C 177.203125 222.875 177.203125 222.871094 177.199219 222.867188 C 177.164062 222.800781 176.777344 222.695312 175.816406 222.746094 C 175.519531 222.765625 175.164062 222.792969 174.738281 222.839844 C 173.667969 218.707031 174.027344 220.050781 173.554688 218.21875 C 174.5625 218.023438 175.699219 217.769531 176.105469 217.664062 C 176.109375 217.664062 176.117188 217.65625 176.121094 217.652344 C 176.125 217.652344 176.128906 217.65625 176.136719 217.667969 C 176.46875 218.851562 176.199219 218.789062 177.585938 222.757812 C 177.652344 220.105469 177.683594 220.226562 177.011719 216.328125 C 176.402344 216.464844 174.90625 216.785156 173.292969 217.21875 C 173.179688 216.796875 173.070312 216.402344 172.972656 216.035156 C 173.007812 216.027344 175.238281 215.347656 175.273438 215.335938 C 175.277344 215.332031 175.277344 215.328125 175.273438 215.320312 C 175.125 215.054688 173.128906 215.257812 172.765625 215.304688 C 171.539062 211.070312 171.179688 211.238281 171.164062 211.191406 C 171.28125 210.945312 171.445312 210.738281 171.648438 210.570312 C 171.988281 210.554688 172.417969 210.515625 172.972656 210.433594 C 173.300781 210.386719 173.667969 210.320312 174.082031 210.238281 C 174.253906 210.203125 174.4375 210.164062 174.632812 210.121094 C 174.78125 210.550781 174.914062 210.941406 175.035156 211.296875 C 175.175781 211.703125 175.3125 212.0625 175.433594 212.386719 C 175.683594 213.027344 175.890625 213.511719 176.0625 213.875 C 176.230469 214.234375 176.359375 214.472656 176.4375 214.621094 C 176.519531 214.765625 176.558594 214.832031 176.558594 214.832031 C 176.554688 214.832031 176.597656 214.761719 176.613281 214.585938 C 176.632812 214.410156 176.640625 214.136719 176.609375 213.734375 C 176.570312 213.339844 176.496094 212.816406 176.351562 212.140625 C 176.277344 211.808594 176.183594 211.433594 176.070312 211.019531 C 175.832031 210.1875 175.941406 210.554688 175.632812 209.566406 C 176.121094 209.519531 176.59375 209.464844 177.019531 209.378906 C 177.632812 212.820312 178.339844 214.136719 178.355469 214.191406 C 178.351562 214.089844 178.808594 213.597656 178.09375 209.109375 C 178.175781 209.082031 178.800781 208.933594 179.621094 208.703125 C 180.449219 208.472656 181.476562 208.160156 182.367188 207.8125 C 183.226562 207.476562 183.5 207.285156 183.5 207.285156 C 183.445312 207.289062 182.609375 207.046875 179.507812 207.660156 C 179.90625 206.988281 180.09375 206.195312 180.1875 205.324219 C 180.597656 201.460938 182.125 201.582031 183.976562 200.625 C 184.527344 203.035156 184.898438 203.652344 184.910156 203.703125 C 184.910156 203.652344 185.199219 202.964844 184.863281 199.957031 C 185.328125 199.457031 185.542969 198.890625 185.617188 198.28125 C 185.734375 198.261719 185.859375 198.242188 185.972656 198.226562 C 186.445312 198.148438 186.867188 198.070312 187.246094 197.996094 C 188 197.847656 188.578125 197.703125 189.015625 197.585938 C 189.882812 197.347656 190.179688 197.183594 190.179688 197.183594 C 190.179688 197.183594 189.945312 197.054688 189.09375 197.015625 C 188.664062 196.996094 188.089844 196.996094 187.308594 197.039062 C 186.917969 197.066406 186.476562 197.101562 185.976562 197.152344 C 185.863281 197.164062 185.734375 197.179688 185.617188 197.1875 C 185.585938 196.871094 185.535156 196.539062 185.46875 196.199219 C 184.503906 191.085938 187.90625 191.777344 191.183594 190.792969 C 191.980469 193.273438 192.476562 193.933594 192.496094 193.988281 C 192.496094 193.933594 192.769531 193.339844 192.136719 190.4375 C 193.054688 189.996094 193.703125 189.351562 194.019531 188.460938 C 195.03125 188.269531 195.722656 188.128906 196.445312 187.980469 L 196.460938 187.96875 C 196.738281 188.945312 196.976562 189.78125 197.179688 190.484375 C 197.304688 190.902344 197.421875 191.285156 197.527344 191.625 C 197.554688 191.710938 197.578125 191.796875 197.605469 191.875 L 197.640625 191.992188 L 197.660156 192.035156 C 197.6875 192.09375 197.714844 192.152344 197.738281 192.207031 C 197.640625 192.25 197.574219 192.285156 197.273438 192.382812 C 197.03125 192.464844 196.816406 192.539062 196.621094 192.605469 C 196.226562 192.742188 195.925781 192.859375 195.695312 192.949219 C 195.234375 193.128906 195.066406 193.21875 195.066406 193.21875 C 195.066406 193.21875 195.214844 193.246094 195.6875 193.210938 C 195.925781 193.195312 196.242188 193.164062 196.664062 193.105469 C 196.875 193.074219 197.109375 193.039062 197.371094 193 C 197.4375 192.992188 197.507812 192.980469 197.574219 192.96875 L 197.679688 192.949219 L 197.851562 192.917969 C 198.105469 192.863281 198.371094 192.808594 198.652344 192.75 C 198.523438 192.125 198.355469 191.308594 198.144531 190.285156 C 198.046875 189.859375 197.941406 189.386719 197.824219 188.875 C 197.65625 188.203125 197.476562 187.472656 197.28125 186.683594 C 196.898438 186.757812 196.441406 186.847656 195.960938 186.941406 C 195.554688 186.972656 195.007812 187.039062 194.273438 187.171875 C 194.5625 183.234375 196.214844 184.738281 198.121094 181.804688 C 198.363281 183.890625 198.527344 184.472656 198.539062 184.523438 C 198.546875 184.394531 198.722656 183.984375 198.777344 180.671875 C 198.933594 180.386719 199.085938 180.09375 199.25 179.796875 C 200.640625 179.386719 201.6875 179.085938 203.570312 178.144531 C 203.671875 179.183594 203.527344 177.96875 204 182.289062 C 204 182.296875 202.320312 182.800781 199.566406 183.882812 C 201.269531 183.71875 202.078125 183.671875 204.972656 182.976562 C 204.785156 179.363281 204.753906 179.039062 204.648438 177.652344 C 204.96875 177.546875 205.28125 177.4375 205.601562 177.335938 C 206.234375 180.132812 206.992188 182.640625 207.019531 182.734375 C 206.933594 181.832031 207.382812 184.066406 206.472656 177.070312 C 208.597656 176.453125 209.6875 176.394531 211.609375 176.429688 C 211.859375 178.453125 211.941406 179.105469 211.964844 179.296875 C 211.96875 179.296875 211.996094 179.449219 212.09375 180.242188 C 211.957031 180.710938 211.8125 181.183594 211.671875 181.660156 Z M 199.878906 225.960938 C 199.796875 224.523438 199.378906 222.96875 199.351562 222.8125 L 199.347656 222.8125 C 199.347656 222.8125 199.347656 222.808594 199.347656 222.804688 C 199.347656 222.804688 199.347656 222.804688 199.351562 222.800781 C 199.863281 222.683594 200.207031 222.617188 200.792969 222.457031 C 200.488281 223.621094 200.1875 224.792969 199.878906 225.960938 Z M 194.648438 245.671875 C 194.773438 243.992188 194.1875 241.417969 194.175781 241.363281 L 194.171875 241.355469 C 194.167969 241.351562 194.160156 241.347656 194.15625 241.347656 C 194.191406 241.261719 194.507812 241.289062 195.941406 240.820312 C 194.710938 245.257812 194.886719 244.792969 194.648438 245.671875 Z M 189.695312 263.289062 C 189.664062 262.277344 189.464844 261.230469 189.285156 260.332031 C 189.277344 260.332031 189.273438 260.328125 189.265625 260.324219 C 189.265625 260.316406 189.265625 260.3125 189.265625 260.3125 L 189.273438 260.304688 C 189.34375 260.265625 190.027344 260 190.875 259.578125 C 190.773438 259.886719 190.46875 260.59375 189.695312 263.289062 Z M 184.289062 261.425781 C 184.300781 261.421875 184.640625 261.386719 185.609375 261.261719 C 185.609375 261.261719 185.609375 261.265625 185.621094 261.324219 C 185.992188 263.34375 186.355469 264.539062 186.613281 265.207031 C 186.320312 265.214844 185.828125 265.253906 185.0625 265.386719 C 184.710938 263.964844 184.492188 262.453125 184.289062 261.425781 Z M 172.226562 205.480469 C 172.105469 206.082031 171.363281 207.65625 171.363281 207.65625 C 171.363281 207.65625 171.027344 205.828125 170.902344 205.308594 C 170.90625 205.3125 172.226562 205.480469 172.226562 205.480469 Z M 176.597656 206.339844 C 176.296875 206.574219 175.429688 207.128906 175.15625 207.253906 C 175.25 207.082031 175.269531 206.46875 175.390625 206.222656 C 175.390625 206.222656 176.289062 206.292969 176.597656 206.339844 Z M 170.621094 204.386719 C 170.492188 203.839844 170.335938 203.230469 170.0625 201.949219 C 171.933594 202.253906 172.574219 202.167969 172.574219 202.167969 C 172.574219 202.167969 172.171875 201.695312 169.84375 200.957031 C 169.519531 199.472656 169.195312 197.992188 168.847656 196.519531 C 168.863281 196.4375 168.882812 196.347656 168.917969 196.261719 C 169.21875 196.296875 173.125 196.753906 173.421875 196.71875 C 173.484375 196.503906 173.152344 199.042969 173.085938 201.023438 C 173.050781 201.957031 173.085938 202.296875 173.085938 202.296875 C 173.160156 202.015625 173.53125 202.085938 174.609375 195.816406 C 170.808594 195.335938 171.503906 195.441406 168.507812 195.132812 C 168.34375 194.460938 167.730469 192.0625 167.179688 190.074219 C 167.835938 188.441406 168.207031 186.980469 168.609375 185.265625 C 168.066406 185.132812 166.824219 184.8125 165.714844 184.5625 C 165.632812 184.195312 165.546875 183.820312 165.464844 183.449219 C 165.390625 183.136719 165.324219 182.816406 165.261719 182.496094 C 166.347656 182.875 167.589844 183.101562 168.355469 183.253906 C 168.675781 182.058594 169.167969 180.152344 169.328125 178.617188 C 169.875 178.488281 170.410156 178.324219 170.917969 178.128906 C 170.695312 179.367188 170.445312 180.976562 170.394531 182.09375 L 170.386719 182.289062 C 170.386719 182.371094 170.382812 182.453125 170.394531 182.527344 C 170.410156 182.683594 170.441406 182.820312 170.511719 182.933594 C 170.605469 183.035156 170.679688 183.105469 170.835938 183.121094 C 170.980469 183.140625 171.117188 183.164062 171.257812 183.179688 C 171.585938 183.21875 171.890625 183.25 172.175781 183.285156 C 176.0625 183.71875 175.628906 183.589844 176.042969 183.628906 C 175.992188 183.613281 174.824219 183.019531 171.492188 182.339844 C 171.292969 182.222656 171.117188 183.019531 172.132812 177.683594 C 173.375 177.722656 176.921875 177.832031 177.292969 177.785156 C 176.324219 184.390625 176.644531 182.773438 176.558594 183.5 C 176.578125 183.4375 177.304688 181.84375 178.265625 177.742188 C 178.875 177.816406 179.421875 177.90625 179.914062 177.992188 C 179.566406 180.558594 179.554688 180.734375 179.191406 184.074219 C 182.6875 184.722656 184.347656 184.773438 184.398438 184.78125 C 181.816406 183.914062 186.109375 185.082031 180.175781 183.390625 L 180.199219 183.34375 C 180.199219 183.34375 180.203125 183.320312 180.207031 183.308594 L 180.21875 183.269531 C 180.25 183.082031 180.285156 182.875 180.328125 182.667969 C 180.394531 182.242188 180.46875 181.777344 180.550781 181.28125 C 180.792969 179.691406 180.808594 179.601562 180.984375 178.371094 C 182.332031 179.003906 183.882812 179.566406 185.429688 179.957031 C 185.359375 181.101562 185.289062 182.40625 185.277344 183.554688 C 185.265625 184.453125 185.296875 184.78125 185.296875 184.78125 C 185.296875 184.78125 185.421875 184.46875 185.621094 183.601562 C 185.878906 182.519531 186.09375 181.28125 186.273438 180.152344 C 186.875 180.28125 187.519531 180.394531 188.199219 180.492188 C 188.136719 180.804688 188.0625 181.035156 187.257812 185.101562 C 190.824219 185.582031 192.441406 185.542969 192.496094 185.546875 C 192.496094 185.546875 192.242188 185.433594 191.535156 185.222656 C 191.179688 185.117188 190.707031 184.988281 190.097656 184.839844 C 189.792969 184.769531 189.445312 184.6875 189.070312 184.601562 C 188.882812 184.558594 188.679688 184.511719 188.472656 184.46875 L 188.402344 184.453125 L 188.382812 184.445312 L 188.351562 184.429688 L 188.296875 184.410156 C 188.382812 184.289062 188.945312 182.050781 189.285156 180.621094 C 191.035156 180.78125 192.761719 180.792969 194.601562 180.628906 C 194.523438 181.066406 194.308594 182.511719 194.253906 182.9375 C 193.605469 183.328125 193.214844 183.765625 193.050781 184.847656 C 192.128906 186.664062 190.507812 187.304688 188.558594 187.90625 C 188.363281 187.847656 188.179688 187.800781 188.019531 187.765625 C 187.453125 187.652344 186.933594 187.550781 186.621094 187.484375 C 186.507812 187.847656 186.398438 188.242188 186.289062 188.644531 C 180.84375 190.6875 182.316406 195.226562 181.925781 196.871094 C 181.027344 196.585938 177.640625 195.757812 176.710938 195.910156 C 176.710938 195.980469 176.648438 195.953125 176.625 195.980469 C 175.636719 196.464844 175.40625 202.757812 175.398438 202.808594 C 175.496094 202.535156 175.679688 202.964844 176.910156 198.207031 C 177.179688 197.199219 177.085938 197.53125 177.246094 197.003906 C 177.667969 197.050781 179.898438 197.382812 181.6875 197.460938 C 180.851562 198.835938 178.28125 198.460938 177.628906 201.617188 C 177.253906 203.507812 177.609375 204.628906 176.917969 205.761719 C 176.199219 205.617188 175.472656 205.515625 174.816406 205.417969 C 174.53125 206.207031 174.324219 206.703125 174.132812 207.597656 C 173.367188 207.75 173.484375 207.691406 173.21875 207.726562 C 173.21875 207.726562 173.277344 207.734375 173.398438 207.753906 C 173.519531 207.78125 173.710938 207.800781 173.992188 207.808594 C 174.53125 207.785156 175.503906 207.75 176.660156 206.933594 C 177.214844 206.515625 177.824219 205.855469 178.058594 204.875 C 178.28125 203.945312 178.285156 202.9375 178.53125 201.902344 C 178.933594 200.386719 179.527344 200.058594 180.671875 199.511719 C 181 199.355469 181.351562 199.1875 181.703125 198.957031 C 182.0625 198.722656 182.433594 198.386719 182.6875 197.953125 C 183.769531 196.082031 182.640625 193.753906 183.785156 191.867188 C 184.664062 190.414062 186.503906 189.464844 188.078125 188.996094 C 190.191406 188.367188 193.867188 186.746094 194.316406 184.28125 C 193.855469 186.808594 193.117188 188.726562 190.539062 189.714844 C 189.285156 190.203125 187.929688 190.40625 186.695312 190.941406 C 185.085938 191.640625 184.1875 192.707031 184.226562 194.417969 C 184.261719 195.941406 184.644531 197.933594 183.472656 199.144531 C 182.835938 199.804688 182.011719 199.828125 181.300781 200.28125 C 179.238281 201.59375 180.027344 203.65625 179.179688 205.644531 C 178.605469 206.988281 177.109375 208.195312 175.777344 208.761719 C 175.140625 209.03125 172.09375 209.644531 171.636719 208.953125 C 171.28125 208.421875 173.480469 205.476562 172.792969 204.988281 C 171.261719 204.507812 171.378906 204.558594 171.367188 204.554688 C 171.09375 204.488281 170.847656 204.429688 170.621094 204.386719 Z M 166.15625 186.507812 C 166.097656 186.261719 166.042969 186.015625 165.988281 185.769531 C 166.226562 185.828125 167.234375 186.050781 167.28125 186.0625 L 167.292969 186.058594 C 167.308594 186.058594 167.320312 186.054688 167.328125 186.054688 C 167.335938 186.058594 167.335938 186.066406 167.339844 186.082031 C 167.339844 186.183594 167.050781 187.585938 166.890625 189.039062 C 166.65625 188.191406 166.40625 187.351562 166.15625 186.507812 Z M 163.585938 178.820312 C 163.566406 178.769531 163.546875 178.71875 163.527344 178.667969 C 163.550781 178.671875 163.574219 178.675781 163.59375 178.683594 C 163.59375 178.730469 163.585938 178.773438 163.585938 178.820312 Z M 167.554688 181.980469 C 167.550781 181.980469 167.550781 181.988281 167.542969 181.992188 L 167.535156 181.992188 C 167.445312 182 166.304688 181.796875 165.117188 181.777344 C 164.90625 180.757812 164.664062 179.738281 164.214844 178.824219 C 165.574219 179.078125 167.089844 179.046875 168.5625 178.777344 C 167.992188 180.128906 167.5625 181.8125 167.542969 181.957031 L 167.542969 181.960938 C 167.550781 181.96875 167.550781 181.976562 167.554688 181.980469 Z M 224.007812 163.925781 C 224.378906 162.699219 224.453125 161.371094 224.226562 160.109375 C 224.007812 158.859375 223.480469 157.703125 222.667969 156.722656 C 222.367188 156.359375 221.886719 156.082031 221.414062 155.8125 C 220.792969 155.464844 220.171875 155.128906 219.914062 154.632812 C 219.769531 154.34375 219.785156 154.007812 219.804688 153.6875 C 219.996094 150.34375 219.992188 147.683594 218.960938 144.503906 C 218.15625 141.988281 217.03125 139.566406 215.59375 137.335938 C 211.835938 131.503906 206.039062 127.433594 199.453125 125.316406 C 187.433594 121.457031 172.140625 125.035156 164.035156 134.90625 C 159.878906 139.964844 156.839844 146.9375 158.027344 153.578125 C 152.871094 156.023438 150.9375 162.996094 154.746094 167.414062 C 153.46875 167.1875 152.011719 171.648438 155.523438 174.441406 C 156.679688 175.355469 160.207031 177.066406 161.960938 177.851562 C 161.914062 177.914062 161.910156 178.007812 162.003906 178.058594 C 162.273438 178.210938 162.574219 178.339844 162.878906 178.457031 C 162.882812 178.507812 170.257812 208.230469 170.644531 209.570312 C 169.121094 210.917969 170.269531 212.632812 170.835938 212.777344 C 171.496094 216.8125 173.097656 221.828125 173.523438 223.519531 C 173.539062 223.566406 173.550781 223.609375 173.558594 223.65625 C 173.589844 223.75 173.617188 223.84375 173.636719 223.9375 C 173.691406 224.117188 173.738281 224.304688 173.785156 224.480469 C 173.992188 225.25 174.199219 226.015625 174.398438 226.785156 C 174.484375 227.101562 174.570312 227.414062 174.648438 227.726562 C 177.675781 239.171875 178.757812 244.316406 182.039062 257.976562 C 182.089844 258.207031 182.144531 258.441406 182.203125 258.671875 C 182.210938 258.722656 182.230469 258.777344 182.242188 258.832031 C 182.40625 259.527344 182.59375 260.214844 182.785156 260.90625 C 182.835938 261.101562 182.890625 261.296875 182.949219 261.496094 C 183.339844 262.882812 183.683594 264.308594 184.054688 265.589844 C 184.140625 265.882812 184.230469 266.164062 184.316406 266.433594 C 184.6875 267.585938 185.226562 269.488281 186.511719 269.976562 C 188.96875 270.914062 189.664062 267.335938 190.207031 265.5625 C 191.316406 261.933594 192.324219 258.269531 193.347656 254.621094 C 193.945312 252.488281 194.539062 250.355469 195.132812 248.222656 C 195.492188 246.925781 195.847656 245.628906 196.207031 244.332031 C 200.441406 229.027344 205.914062 208.328125 208.175781 200.171875 C 209.828125 194.160156 211.570312 188.125 213.082031 182.046875 C 213.101562 182.042969 213.117188 182.039062 213.136719 182.03125 C 213.136719 181.980469 213.132812 181.921875 213.128906 181.863281 C 213.574219 180.070312 214 178.277344 214.398438 176.476562 C 216.808594 176.449219 219.394531 176.179688 221.148438 174.347656 C 223.0625 172.347656 223.148438 169.496094 222.042969 167.117188 C 222.171875 167.117188 223.902344 164.277344 224.007812 163.925781 " fill-opacity="1" fill-rule="nonzero"/></g><path fill="rgb(78.42865%, 24.708557%, 25.099182%)" d="M 205.53125 157.511719 C 206.011719 157.359375 208.390625 156.53125 210.585938 155.527344 C 211.308594 155.195312 211.597656 155.042969 211.597656 155.042969 C 211.597656 155.042969 211.363281 155.066406 210.707031 155.207031 C 209.601562 155.445312 206.027344 156.378906 204.28125 156.730469 C 203.691406 156.859375 203.054688 157 202.371094 157.148438 C 197.523438 158.054688 193.542969 158.679688 187.898438 158.914062 C 182.808594 159.117188 178.65625 158.832031 175.324219 158.453125 C 169.878906 157.8125 167.582031 157.257812 162.480469 156.214844 C 166.515625 157.953125 169.59375 158.929688 175.011719 159.839844 C 179.160156 160.421875 183.027344 160.8125 187.769531 160.59375 C 194.273438 160.339844 200.484375 159.117188 203.855469 158.019531 C 204.453125 157.839844 205.011719 157.667969 205.53125 157.511719 " fill-opacity="1" fill-rule="nonzero"/><path fill="rgb(78.42865%, 24.708557%, 25.099182%)" d="M 182.539062 174.441406 C 182.597656 174.460938 186.457031 177.140625 193.066406 177.0625 C 199.09375 176.957031 201.804688 175.101562 203.105469 174.574219 C 197.746094 175.597656 200.152344 175.175781 198.265625 175.492188 C 191.824219 176.496094 188.429688 175.78125 182.539062 174.441406 " fill-opacity="1" fill-rule="nonzero"/><path fill="rgb(78.42865%, 24.708557%, 25.099182%)" d="M 155.761719 160.761719 C 155.820312 160.527344 155.839844 160.425781 155.839844 160.425781 C 155.839844 160.425781 155.761719 160.488281 155.601562 160.6875 C 153.554688 163.523438 156.953125 168.457031 162.40625 167.027344 C 164.597656 166.425781 165.71875 165.203125 165.765625 165.167969 C 165.714844 165.183594 163 165.953125 162.417969 166.058594 C 157.777344 166.871094 155.113281 163.976562 155.761719 160.761719 " fill-opacity="1" fill-rule="nonzero"/><path fill="rgb(78.42865%, 24.708557%, 25.099182%)" d="M 220.09375 161.363281 C 219.769531 162.574219 218.929688 163.492188 217.851562 164.097656 C 217.269531 164.421875 216.5625 164.691406 215.683594 164.789062 C 213.527344 165.058594 211.300781 164.378906 208.589844 164.042969 C 205.5625 163.667969 203.074219 163.667969 201.074219 163.796875 C 199.078125 163.917969 197.570312 164.164062 196.449219 164.382812 C 195.328125 164.609375 194.589844 164.808594 194.132812 164.949219 C 193.675781 165.085938 193.496094 165.152344 193.496094 165.152344 C 193.496094 165.152344 193.6875 165.15625 194.15625 165.121094 C 194.628906 165.085938 195.375 165.027344 196.492188 164.941406 C 197.609375 164.867188 199.09375 164.757812 201.042969 164.738281 C 202.988281 164.71875 205.398438 164.777344 208.335938 165.136719 C 211.257812 165.484375 214.128906 166.316406 216.730469 165.480469 C 217.152344 165.335938 217.53125 165.167969 217.863281 164.96875 C 219.332031 164.121094 220.460938 162.625 220.203125 160.855469 C 220.195312 160.90625 220.109375 161.308594 220.09375 161.363281 " fill-opacity="1" fill-rule="nonzero"/><path fill="rgb(78.42865%, 24.708557%, 25.099182%)" d="M 158.714844 173.589844 C 160.84375 175.566406 164.097656 176.125 166.128906 175.464844 C 166.566406 175.34375 166.839844 175.199219 167.011719 175.109375 C 167.179688 175.015625 167.246094 174.96875 167.246094 174.96875 C 161.933594 174.507812 161.046875 174.582031 157.058594 170.90625 C 157.085938 170.960938 157.140625 172.101562 158.714844 173.589844 " fill-opacity="1" fill-rule="nonzero"/><path fill="rgb(78.42865%, 24.708557%, 25.099182%)" d="M 173.28125 155.144531 C 173.332031 155.15625 183.261719 159.175781 196.941406 156.066406 C 197.898438 155.84375 198.535156 155.648438 198.9375 155.523438 C 199.335938 155.394531 199.5 155.332031 199.5 155.332031 C 199.5 155.332031 199.371094 155.316406 199.019531 155.328125 C 198.664062 155.332031 198.085938 155.390625 197.167969 155.460938 C 195.339844 155.601562 192.183594 156.019531 186.796875 156.082031 C 182.117188 156.109375 178.40625 155.714844 173.28125 155.144531 " fill-opacity="1" fill-rule="nonzero"/><path fill="rgb(78.42865%, 24.708557%, 25.099182%)" d="M 177.28125 164.738281 C 174.082031 163.683594 173.113281 163.867188 173.113281 163.867188 C 173.113281 163.867188 173.691406 164.734375 176.878906 165.777344 C 179.859375 166.757812 180.832031 166.574219 180.832031 166.574219 C 180.832031 166.574219 180.476562 165.792969 177.28125 164.738281 " fill-opacity="1" fill-rule="nonzero"/><path fill="rgb(78.42865%, 24.708557%, 25.099182%)" d="M 179.6875 217.316406 C 179.679688 217.3125 179.671875 217.304688 179.683594 217.296875 C 179.976562 217.234375 180.253906 217.171875 180.515625 217.117188 C 184.128906 216.308594 185.375 215.742188 185.425781 215.726562 C 185.375 215.71875 185.121094 215.605469 184.003906 215.640625 C 183.476562 215.660156 182.78125 215.714844 181.875 215.832031 C 181.421875 215.886719 180.917969 215.960938 180.355469 216.058594 C 178.1875 216.441406 178.292969 216.429688 178.320312 216.480469 L 178.382812 216.722656 C 178.425781 216.886719 178.464844 217.050781 178.507812 217.21875 C 178.605469 217.59375 178.699219 217.953125 178.789062 218.296875 C 180.066406 222.867188 180.628906 223.535156 180.671875 223.65625 C 180.664062 223.601562 181.09375 222.929688 179.6875 217.316406 " fill-opacity="1" fill-rule="nonzero"/><path fill="rgb(78.42865%, 24.708557%, 25.099182%)" d="M 187.324219 215.03125 C 188.53125 220.421875 189.234375 221.21875 189.285156 221.351562 C 189.285156 221.351562 189.390625 221.105469 189.355469 220.269531 C 189.292969 218.65625 188.710938 216.054688 188.664062 215.894531 C 188.664062 215.894531 188.664062 215.894531 188.664062 215.910156 C 188.664062 215.90625 188.660156 215.898438 188.660156 215.898438 C 188.640625 215.90625 188.625 215.90625 188.625 215.90625 C 188.628906 215.90625 188.644531 215.902344 188.664062 215.894531 C 190.792969 215.117188 189.804688 215.546875 193.777344 214.320312 C 193.566406 214.320312 192.839844 213.914062 187.324219 215.03125 " fill-opacity="1" fill-rule="nonzero"/><path fill="rgb(78.42865%, 24.708557%, 25.099182%)" d="M 186.421875 207.324219 C 186.40625 207.25 186.390625 207.175781 186.375 207.101562 L 186.359375 207.015625 C 186.359375 207.015625 186.355469 207.011719 186.355469 207.011719 C 186.355469 207.011719 186.351562 207.003906 186.355469 207.003906 L 186.355469 207 C 190.847656 206.414062 191.058594 206.125 191.980469 205.878906 C 189.402344 205.621094 189.128906 205.578125 185.015625 206.027344 C 186.320312 212.164062 186.898438 212.667969 186.96875 212.910156 C 186.953125 212.746094 187.304688 212.019531 186.421875 207.324219 " fill-opacity="1" fill-rule="nonzero"/><path fill="rgb(78.42865%, 24.708557%, 25.099182%)" d="M 195.570312 205.683594 C 199.816406 205.078125 200.480469 204.625 200.59375 204.597656 C 197.941406 204.328125 197.699219 204.332031 194.019531 204.75 C 194.714844 208.179688 194.667969 208.257812 195.839844 211.503906 C 195.839844 211.449219 196.1875 210.269531 195.34375 205.734375 C 195.34375 205.734375 195.34375 205.730469 195.339844 205.726562 C 195.339844 205.726562 195.335938 205.722656 195.339844 205.71875 C 195.351562 205.71875 195.316406 205.71875 195.371094 205.710938 L 195.570312 205.683594 " fill-opacity="1" fill-rule="nonzero"/><path fill="rgb(78.42865%, 24.708557%, 25.099182%)" d="M 193.664062 198.324219 C 193.648438 198.101562 193.628906 197.871094 193.613281 197.628906 L 193.597656 197.445312 C 193.59375 197.402344 193.59375 197.394531 193.59375 197.398438 L 193.597656 197.390625 C 193.601562 197.382812 193.601562 197.378906 193.605469 197.375 C 193.632812 197.378906 193.601562 197.386719 193.660156 197.382812 C 193.863281 197.351562 194.085938 197.320312 194.324219 197.285156 C 200.023438 196.375 195.867188 197.015625 198.273438 196.582031 C 198.722656 198.078125 198.453125 197.679688 199.566406 200.890625 C 199.585938 199.074219 199.625 198.550781 199.097656 195.421875 C 198.625 195.492188 198.039062 195.574219 197.359375 195.671875 C 196.933594 195.742188 196.449219 195.816406 195.933594 195.898438 C 194.628906 195.980469 193.230469 196.167969 192.105469 196.320312 C 193.226562 202.582031 193.628906 202.421875 193.78125 202.9375 C 193.816406 201.488281 193.808594 200.457031 193.664062 198.324219 " fill-opacity="1" fill-rule="nonzero"/><path fill="rgb(78.42865%, 24.708557%, 25.099182%)" d="M 205.949219 185.574219 C 203.394531 185.847656 203.125 185.867188 198.875 186.410156 C 199.488281 189.414062 199.851562 190.59375 200.59375 192.960938 C 200.417969 189.226562 199.972656 186.976562 200.058594 187.285156 C 200.113281 187.277344 204.855469 186.855469 205.03125 186.765625 C 205.449219 188.90625 205.273438 188.039062 205.707031 190.179688 C 205.738281 190.3125 205.765625 190.4375 205.792969 190.5625 L 205.828125 190.730469 L 205.851562 190.796875 L 205.871094 190.863281 C 205.863281 190.882812 205.84375 190.894531 205.828125 190.90625 C 205.785156 190.941406 205.785156 190.949219 205.675781 191.019531 C 205.328125 191.246094 205.027344 191.441406 204.769531 191.609375 C 204.246094 191.9375 203.882812 192.148438 203.644531 192.246094 C 203.527344 192.300781 203.4375 192.324219 203.378906 192.332031 C 203.320312 192.328125 203.292969 192.324219 203.292969 192.324219 C 203.148438 192 202.9375 193.027344 205.808594 191.714844 C 205.90625 191.671875 206.003906 191.625 206.105469 191.578125 C 206.273438 191.488281 206.449219 191.394531 206.632812 191.296875 L 206.699219 191.257812 L 206.691406 191.183594 C 206.417969 188.78125 206.417969 188.671875 205.949219 185.574219 " fill-opacity="1" fill-rule="nonzero"/><path fill="rgb(78.42865%, 24.708557%, 25.099182%)" d="M 169.90625 185.757812 C 168.730469 190.019531 168.601562 191.878906 168.589844 191.941406 C 168.589844 191.941406 168.78125 191.679688 169.148438 190.867188 C 169.992188 189.011719 170.667969 186.765625 170.632812 186.929688 C 170.636719 186.925781 170.640625 186.921875 170.644531 186.917969 L 170.660156 186.933594 L 170.664062 186.933594 C 172.234375 187.195312 173.761719 187.417969 175.324219 187.609375 C 175.347656 187.605469 175.378906 187.601562 175.417969 187.597656 C 175.121094 189.070312 175.503906 186.851562 174.503906 192.195312 C 174.527344 192.144531 175.105469 191.75 176.738281 186.777344 C 173.589844 186.246094 173.058594 186.171875 169.90625 185.757812 " fill-opacity="1" fill-rule="nonzero"/><path fill="rgb(78.42865%, 24.708557%, 25.099182%)" d="M 179.769531 187.828125 C 179.769531 187.828125 179.765625 187.824219 179.765625 187.816406 C 179.765625 187.8125 179.769531 187.808594 179.773438 187.808594 C 181.046875 187.839844 180.757812 188.113281 184.785156 187.976562 C 184.492188 187.902344 184.679688 187.410156 178.996094 186.585938 C 177.152344 192.285156 177.363281 193.328125 177.328125 193.476562 C 177.328125 193.476562 178.152344 192.839844 179.769531 187.828125 " fill-opacity="1" fill-rule="nonzero"/><path fill="rgb(78.42865%, 24.708557%, 25.099182%)" d="M 181.738281 226.03125 C 184.941406 225.429688 184.800781 225.460938 187.613281 224.546875 C 184.785156 224.421875 184.507812 224.441406 180.382812 225.117188 C 181.78125 230.839844 182.425781 231.582031 182.46875 231.710938 C 182.46875 231.710938 182.542969 231.371094 182.472656 230.417969 C 182.332031 228.488281 181.757812 226.128906 181.738281 226.03125 " fill-opacity="1" fill-rule="nonzero"/><path fill="rgb(78.42865%, 24.708557%, 25.099182%)" d="M 189.257812 223.445312 C 190.441406 229.195312 191.175781 230.195312 191.210938 230.304688 C 191.191406 230.113281 191.601562 229.367188 190.597656 224.390625 C 190.589844 224.363281 190.59375 224.382812 190.589844 224.375 L 190.585938 224.371094 C 190.585938 224.371094 190.585938 224.367188 190.585938 224.359375 L 190.59375 224.359375 C 191.410156 224.207031 195.800781 224.019531 195.457031 224.03125 C 195.460938 224.023438 195.46875 224.019531 195.476562 224.027344 C 196.285156 227.730469 196.535156 227.789062 196.824219 228.554688 C 196.828125 228.441406 197.328125 228.070312 196.390625 222.851562 C 196.328125 222.847656 196.253906 222.859375 196.183594 222.859375 C 194.164062 223.011719 194.949219 222.574219 189.257812 223.445312 " fill-opacity="1" fill-rule="nonzero"/><path fill="rgb(78.42865%, 24.708557%, 25.099182%)" d="M 189.152344 233.246094 C 188.789062 233.273438 188.910156 232.667969 182.597656 233.816406 C 183.644531 239.523438 184.214844 240.074219 184.269531 240.277344 C 184.289062 239.476562 184.664062 239.792969 183.890625 234.722656 L 183.886719 234.722656 C 183.886719 234.722656 183.886719 234.714844 183.890625 234.714844 C 188.417969 233.808594 188.980469 233.292969 189.152344 233.246094 " fill-opacity="1" fill-rule="nonzero"/><path fill="rgb(78.42865%, 24.708557%, 25.099182%)" d="M 186.328125 249.613281 C 186.324219 249.515625 186.796875 248.636719 186.179688 243.949219 L 186.175781 243.949219 C 186.175781 243.945312 186.171875 243.9375 186.167969 243.9375 C 186.167969 243.933594 186.171875 243.929688 186.175781 243.929688 C 186.609375 243.835938 187.316406 243.710938 188.246094 243.488281 C 188.921875 243.460938 189.539062 243.402344 190.222656 243.328125 L 190.226562 243.324219 C 190.226562 243.324219 190.230469 243.324219 190.234375 243.324219 C 190.96875 247.195312 191.464844 247.671875 191.511719 247.820312 C 191.488281 247.433594 192.117188 247.761719 191.164062 242.09375 C 190.625 242.164062 185.460938 242.921875 184.925781 243 C 185.683594 248.730469 186.289062 249.453125 186.328125 249.613281 " fill-opacity="1" fill-rule="nonzero"/><g fill="rgb(24.708557%, 0%, 5.879211%)" fill-opacity="1"><g transform="translate(160.219373, 283.402658)"><g><path d="M 5.027344 -3.382812 L 5.027344 -3.988281 L 0.824219 -3.988281 L 0.824219 0 L 5.027344 0 L 5.027344 -0.605469 L 1.503906 -0.605469 L 1.503906 -1.640625 L 4.613281 -1.640625 L 4.613281 -2.246094 L 1.503906 -2.246094 L 1.503906 -3.382812 Z M 5.027344 -3.382812 "/></g></g></g><g fill="rgb(24.708557%, 0%, 5.879211%)" fill-opacity="1"><g transform="translate(166.168828, 283.402658)"><g><path d="M 4.660156 -2.699219 L 5.335938 -2.699219 C 5.335938 -3.695312 4.433594 -4.046875 3.003906 -4.046875 C 1.308594 -4.046875 0.539062 -3.65625 0.539062 -2.925781 L 0.539062 -2.871094 C 0.539062 -1.972656 1.261719 -1.855469 2.859375 -1.6875 C 4.59375 -1.527344 4.601562 -1.289062 4.601562 -1.183594 L 4.601562 -1.101562 C 4.601562 -0.636719 3.601562 -0.597656 2.863281 -0.597656 C 1.734375 -0.597656 1.210938 -0.898438 1.210938 -1.375 L 0.53125 -1.375 C 0.53125 -0.484375 1.304688 0.0664062 2.863281 0.0664062 C 4.535156 0.0664062 5.296875 -0.246094 5.296875 -1.125 L 5.296875 -1.191406 C 5.296875 -2.09375 4.40625 -2.21875 2.898438 -2.359375 C 1.242188 -2.511719 1.238281 -2.71875 1.238281 -2.878906 L 1.238281 -2.9375 C 1.238281 -3.257812 2.0625 -3.382812 3.003906 -3.382812 C 3.949219 -3.382812 4.660156 -3.210938 4.660156 -2.699219 Z M 4.660156 -2.699219 "/></g></g></g><g fill="rgb(24.708557%, 0%, 5.879211%)" fill-opacity="1"><g transform="translate(172.557015, 283.402658)"><g><path d="M 4.539062 -3.988281 L -0.0195312 -3.988281 L -0.0195312 -3.335938 L 1.921875 -3.335938 L 1.921875 0 L 2.597656 0 L 2.597656 -3.335938 L 4.539062 -3.335938 Z M 4.539062 -3.988281 "/></g></g></g><g fill="rgb(24.708557%, 0%, 5.879211%)" fill-opacity="1"><g transform="translate(177.589125, 283.402658)"><g><path d="M 3.164062 -3.988281 L 0.824219 -3.988281 L 0.824219 0 L 3.164062 0 C 5.628906 0 5.863281 -0.84375 5.863281 -1.78125 L 5.863281 -2.074219 C 5.863281 -3.042969 5.628906 -3.988281 3.164062 -3.988281 Z M 5.171875 -1.78125 C 5.171875 -1.125 5.085938 -0.664062 3.164062 -0.664062 L 1.503906 -0.664062 L 1.503906 -3.324219 L 3.164062 -3.324219 C 5.003906 -3.324219 5.171875 -2.785156 5.171875 -2.074219 Z M 5.171875 -1.78125 "/></g></g></g><g fill="rgb(24.708557%, 0%, 5.879211%)" fill-opacity="1"><g transform="translate(184.502465, 283.402658)"><g><path d="M 0.949219 0 C 1.191406 0 1.324219 -0.113281 1.324219 -0.285156 L 1.324219 -0.324219 C 1.324219 -0.519531 1.191406 -0.605469 0.949219 -0.605469 C 0.710938 -0.605469 0.585938 -0.519531 0.585938 -0.324219 L 0.585938 -0.277344 C 0.585938 -0.113281 0.710938 0 0.949219 0 Z M 0.949219 0 "/></g></g></g><g fill="rgb(24.708557%, 0%, 5.879211%)" fill-opacity="1"><g transform="translate(186.948722, 283.402658)"><g/></g></g><g fill="rgb(24.708557%, 0%, 5.879211%)" fill-opacity="1"><g transform="translate(190.126197, 283.402658)"><g><path d="M 2.746094 -1.144531 C 3.6875 -1.46875 5.066406 -1.742188 5.066406 -2.679688 L 5.066406 -2.804688 C 5.066406 -3.464844 4.339844 -4.054688 2.832031 -4.054688 C 0.710938 -4.054688 0.40625 -3.136719 0.40625 -2.339844 L 1.097656 -2.339844 C 1.097656 -2.878906 1.238281 -3.390625 2.832031 -3.390625 C 3.777344 -3.390625 4.375 -3.144531 4.375 -2.804688 L 4.375 -2.679688 C 4.375 -2.367188 3.988281 -2.207031 2.605469 -1.714844 C 1.6875 -1.390625 0.433594 -0.964844 0.433594 -0.277344 L 0.433594 0.167969 L 5.050781 0.167969 L 5.050781 -0.5 L 1.363281 -0.5 C 1.363281 -0.703125 1.789062 -0.816406 2.746094 -1.144531 Z M 2.746094 -1.144531 "/></g></g></g><g fill="rgb(24.708557%, 0%, 5.879211%)" fill-opacity="1"><g transform="translate(196.408026, 283.402658)"><g><path d="M 2.90625 0.0664062 C 4.492188 0.0664062 5.335938 -0.699219 5.335938 -1.875 L 5.335938 -2.167969 C 5.335938 -3.382812 4.445312 -4.054688 2.90625 -4.054688 C 1.335938 -4.054688 0.472656 -3.335938 0.472656 -2.140625 L 0.472656 -1.847656 C 0.472656 -0.652344 1.335938 0.0664062 2.90625 0.0664062 Z M 2.90625 -0.597656 C 1.894531 -0.597656 1.164062 -0.898438 1.164062 -1.847656 L 1.164062 -2.140625 C 1.164062 -3.097656 1.894531 -3.390625 2.90625 -3.390625 C 3.921875 -3.390625 4.648438 -3.097656 4.648438 -2.140625 L 4.648438 -1.847656 C 4.648438 -0.898438 3.921875 -0.597656 2.90625 -0.597656 Z M 2.90625 -0.597656 "/></g></g></g><g fill="rgb(24.708557%, 0%, 5.879211%)" fill-opacity="1"><g transform="translate(202.736384, 283.402658)"><g><path d="M 2.746094 -1.144531 C 3.6875 -1.46875 5.066406 -1.742188 5.066406 -2.679688 L 5.066406 -2.804688 C 5.066406 -3.464844 4.339844 -4.054688 2.832031 -4.054688 C 0.710938 -4.054688 0.40625 -3.136719 0.40625 -2.339844 L 1.097656 -2.339844 C 1.097656 -2.878906 1.238281 -3.390625 2.832031 -3.390625 C 3.777344 -3.390625 4.375 -3.144531 4.375 -2.804688 L 4.375 -2.679688 C 4.375 -2.367188 3.988281 -2.207031 2.605469 -1.714844 C 1.6875 -1.390625 0.433594 -0.964844 0.433594 -0.277344 L 0.433594 0.167969 L 5.050781 0.167969 L 5.050781 -0.5 L 1.363281 -0.5 C 1.363281 -0.703125 1.789062 -0.816406 2.746094 -1.144531 Z M 2.746094 -1.144531 "/></g></g></g><g fill="rgb(24.708557%, 0%, 5.879211%)" fill-opacity="1"><g transform="translate(209.018211, 283.402658)"><g><path d="M 2.746094 -1.144531 C 3.6875 -1.46875 5.066406 -1.742188 5.066406 -2.679688 L 5.066406 -2.804688 C 5.066406 -3.464844 4.339844 -4.054688 2.832031 -4.054688 C 0.710938 -4.054688 0.40625 -3.136719 0.40625 -2.339844 L 1.097656 -2.339844 C 1.097656 -2.878906 1.238281 -3.390625 2.832031 -3.390625 C 3.777344 -3.390625 4.375 -3.144531 4.375 -2.804688 L 4.375 -2.679688 C 4.375 -2.367188 3.988281 -2.207031 2.605469 -1.714844 C 1.6875 -1.390625 0.433594 -0.964844 0.433594 -0.277344 L 0.433594 0.167969 L 5.050781 0.167969 L 5.050781 -0.5 L 1.363281 -0.5 C 1.363281 -0.703125 1.789062 -0.816406 2.746094 -1.144531 Z M 2.746094 -1.144531 "/></g></g></g></svg>